<?xml version="1.0" encoding="UTF-8" standalone="no"?>
<!-- Created with Inkscape (http://www.inkscape.org/) -->

<svg
   xmlns:dc="http://purl.org/dc/elements/1.1/"
   xmlns:cc="http://creativecommons.org/ns#"
   xmlns:rdf="http://www.w3.org/1999/02/22-rdf-syntax-ns#"
   xmlns:svg="http://www.w3.org/2000/svg"
   xmlns="http://www.w3.org/2000/svg"
   xmlns:sodipodi="http://sodipodi.sourceforge.net/DTD/sodipodi-0.dtd"
   xmlns:inkscape="http://www.inkscape.org/namespaces/inkscape"
   width="129.31664"
   height="15.15961"
   viewBox="0 0 129.31662 15.15961"
   id="svg3981"
   version="1.1"
   inkscape:version="0.91 r13725"
   sodipodi:docname="emotiv.svg">
  <defs
     id="defs3983">
    <clipPath
       id="clipPath3368"
       clipPathUnits="userSpaceOnUse">
      <path
         inkscape:connector-curvature="0"
         id="path3370"
         d="M 0,792 576,792 576,0 0,0 0,792 Z" />
    </clipPath>
    <clipPath
       id="clipPath3374"
       clipPathUnits="userSpaceOnUse">
      <path
         inkscape:connector-curvature="0"
         id="path3376"
         d="M 0,0 576,0 576,792 0,792 0,0 Z" />
    </clipPath>
  </defs>
  <sodipodi:namedview
     id="base"
     pagecolor="#ffffff"
     bordercolor="#666666"
     borderopacity="1.0"
     inkscape:pageopacity="0.0"
     inkscape:pageshadow="2"
     inkscape:zoom="7.0254897"
     inkscape:cx="64.408322"
     inkscape:cy="7.3298037"
     inkscape:document-units="px"
     inkscape:current-layer="layer1"
     showgrid="false"
     fit-margin-top="0"
     fit-margin-left="0"
     fit-margin-right="0"
     fit-margin-bottom="0"
     units="px"
     inkscape:window-width="1280"
     inkscape:window-height="744"
     inkscape:window-x="-4"
     inkscape:window-y="-4"
     inkscape:window-maximized="1" />
  <metadata
     id="metadata3986">
    <rdf:RDF>
      <cc:Work
         rdf:about="">
        <dc:format>image/svg+xml</dc:format>
        <dc:type
           rdf:resource="http://purl.org/dc/dcmitype/StillImage" />
        <dc:title></dc:title>
      </cc:Work>
    </rdf:RDF>
  </metadata>
  <g
     inkscape:label="Layer 1"
     inkscape:groupmode="layer"
     id="layer1"
     transform="translate(-412.73453,-673.10383)">
    <g
       id="g3364"
       transform="matrix(1.25,0,0,-1.25,-127.52611,731.64103)">
      <g
         id="g3366"
         clip-path="url(#clipPath3368)">
        <g
           id="g3372"
           clip-path="url(#clipPath3374)">
          <path
             d="m 535.1055,46.4316 c -0.394,0.292 -0.949,0.213 -1.244,-0.175 l -7.284,-9.597 -7.285,9.597 c -0.294,0.388 -0.851,0.467 -1.244,0.175 -0.392,-0.29 -0.472,-0.84 -0.177,-1.229 l 7.284,-9.598 c 0.589,-0.776 1.703,-0.932 2.488,-0.351 0.109,0.075 0.278,0.243 0.355,0.351 l 7.285,9.598 c 0.295,0.389 0.216,0.939 -0.178,1.229 m -22.609,0.198 c -0.491,-0.007 -0.799,-0.247 -0.799,-0.732 l 0,-10.261 c 0,-0.484 0.471,-0.733 0.962,-0.733 0.49,0 0.479,0.249 0.479,0.733 l 0,10.261 c -0.224,0.518 -0.195,0.739 -0.642,0.732 m -5.759,-0.021 -6.22,0 -5.819,0.021 c -0.49,0 -0.741,-0.247 -0.741,-0.732 0,-0.486 0.251,-0.734 0.741,-0.734 l 5.466,0 c 0,0 0,-8.794 0.04,-9.221 0.018,-0.683 0.193,-1.076 0.68,-1.038 0.49,0.037 0.721,0.248 0.721,0.732 l 0,9.527 4.958,0 c 0.491,0 0.767,0.248 0.741,0.734 -0.025,0.512 -0.082,0.716 -0.567,0.711 m -18.827,-8.04 c 0,-0.97 -1.129,-2.199 -2.111,-2.199 l -6.673,0 c -0.983,0 -2.029,1.229 -2.029,2.199 l 0,4.397 c 0,0.97 1.046,2.198 2.029,2.198 l 6.673,0 c 0.982,0 2.111,-1.228 2.111,-2.198 l 0,-4.397 z m -2.2,8.04 -7.107,0 c -1.963,0 -2.947,-1.703 -2.947,-3.643 l 0,-4.397 c 0,-1.94 0.984,-3.665 2.947,-3.665 l 7.107,0 c 1.963,0 3.641,1.725 3.641,3.665 l 0,4.397 c 0,1.94 -1.678,3.643 -3.641,3.643 m -49.595,-1.445 9.639,0 c 0.492,0 0.742,0.248 0.742,0.734 0,0.485 -0.272,0.711 -0.762,0.711 l -9.773,0 c -1.962,0 -3.553,-1.573 -3.553,-3.512 l 0,-4.683 c 0,-1.939 1.591,-3.51 3.553,-3.51 l 9.773,0 c 0.49,0 0.762,0.249 0.762,0.733 0,0.484 -0.25,0.733 -0.742,0.733 l -9.639,0 c -0.982,0 -2.225,1.229 -2.225,2.199 l 0,1.466 11.864,0 c 0.492,0 0.742,0.248 0.742,0.732 0,0.485 -0.25,0.733 -0.742,0.733 l -11.864,0 0,1.466 c 0,0.97 1.243,2.198 2.225,2.198 m 34.496,0 c 0,0.97 -0.502,1.445 -1.484,1.445 -0.509,0.027 -1.153,-0.294 -1.432,-0.717 l -6.859,-9.232 -6.859,9.232 c -0.581,0.782 -1.693,0.949 -2.484,0.376 -0.427,-0.276 -0.373,-0.6 -0.345,-1.104 l 0,-9.527 c 0,-0.484 0.018,-0.733 0.509,-0.733 0.49,0 0.932,0.249 0.932,0.733 l 0,8.795 6.815,-8.813 c 0.58,-0.781 1.692,-0.95 2.483,-0.375 0.119,0.079 0.301,0.258 0.381,0.375 l 6.9,8.813 0,-8.795 c 0,-0.484 0.568,-0.732 1.059,-0.732 0.489,0 0.384,0.248 0.384,0.732 l 0,9.527 z"
             style="fill:#000000;fill-opacity:1;fill-rule:nonzero;stroke:none"
             id="path3378"
             inkscape:connector-curvature="0" />
        </g>
      </g>
    </g>
  </g>
</svg>
